<mxfile host="app.diagrams.net" modified="2024-06-23T08:11:06.222Z" agent="Mozilla/5.0 (Windows NT 10.0; Win64; x64) AppleWebKit/537.36 (KHTML, like Gecko) Chrome/126.0.0.0 Safari/537.36" etag="PFH2eHF6cp525VjzjJpH" version="24.5.4" type="github" pages="2">
  <diagram name="Architecture" id="KjC4Xg8tAK9j9PCu9dQ1">
    <mxGraphModel dx="1185" dy="632" grid="1" gridSize="10" guides="1" tooltips="1" connect="1" arrows="1" fold="1" page="1" pageScale="1" pageWidth="850" pageHeight="1100" math="0" shadow="0">
      <root>
        <mxCell id="KlxJ9Z5U4-zLsQv62aYy-0" />
        <mxCell id="KlxJ9Z5U4-zLsQv62aYy-1" parent="KlxJ9Z5U4-zLsQv62aYy-0" />
        <mxCell id="KlxJ9Z5U4-zLsQv62aYy-2" value="&lt;u&gt;Scene&lt;/u&gt;&lt;div&gt;Edit gui objects and export&lt;/div&gt;&lt;div&gt;Logic of ui&lt;/div&gt;&lt;div&gt;Listen to Update_Message&lt;/div&gt;&lt;div&gt;Sends Time_Message&lt;/div&gt;" style="rounded=1;whiteSpace=wrap;html=1;" parent="KlxJ9Z5U4-zLsQv62aYy-1" vertex="1">
          <mxGeometry x="40" y="180" width="200" height="90" as="geometry" />
        </mxCell>
        <mxCell id="KlxJ9Z5U4-zLsQv62aYy-3" value="&lt;u&gt;Model&lt;/u&gt;&lt;div&gt;&lt;span style=&quot;background-color: initial;&quot;&gt;Has method that call commands&lt;/span&gt;&lt;br&gt;&lt;/div&gt;&lt;div&gt;No logic&lt;/div&gt;" style="rounded=1;whiteSpace=wrap;html=1;" parent="KlxJ9Z5U4-zLsQv62aYy-1" vertex="1">
          <mxGeometry x="410" y="330" width="210" height="60" as="geometry" />
        </mxCell>
        <mxCell id="KlxJ9Z5U4-zLsQv62aYy-4" value="&lt;u&gt;Controller&lt;/u&gt;&lt;div&gt;Static classes&lt;/div&gt;&lt;div&gt;Send/Listen to messages&lt;/div&gt;&lt;div&gt;Logic of game&lt;/div&gt;" style="rounded=1;whiteSpace=wrap;html=1;" parent="KlxJ9Z5U4-zLsQv62aYy-1" vertex="1">
          <mxGeometry x="580" y="180" width="210" height="90" as="geometry" />
        </mxCell>
        <mxCell id="KlxJ9Z5U4-zLsQv62aYy-5" value="&lt;u&gt;Resource&lt;/u&gt;&lt;div&gt;&lt;span style=&quot;background-color: initial;&quot;&gt;Has static data&amp;nbsp;&lt;/span&gt;&lt;span style=&quot;background-color: initial;&quot;&gt;In file system&lt;/span&gt;&lt;/div&gt;" style="rounded=1;whiteSpace=wrap;html=1;" parent="KlxJ9Z5U4-zLsQv62aYy-1" vertex="1">
          <mxGeometry x="310" y="180" width="210" height="90" as="geometry" />
        </mxCell>
        <mxCell id="KlxJ9Z5U4-zLsQv62aYy-6" value="" style="endArrow=classic;html=1;rounded=0;exitX=0.5;exitY=0;exitDx=0;exitDy=0;entryX=0.5;entryY=1;entryDx=0;entryDy=0;" parent="KlxJ9Z5U4-zLsQv62aYy-1" source="KlxJ9Z5U4-zLsQv62aYy-3" target="KlxJ9Z5U4-zLsQv62aYy-5" edge="1">
          <mxGeometry width="50" height="50" relative="1" as="geometry">
            <mxPoint x="390" y="410" as="sourcePoint" />
            <mxPoint x="440" y="360" as="targetPoint" />
            <Array as="points">
              <mxPoint x="515" y="300" />
              <mxPoint x="460" y="300" />
              <mxPoint x="415" y="300" />
            </Array>
          </mxGeometry>
        </mxCell>
        <mxCell id="KlxJ9Z5U4-zLsQv62aYy-7" value="" style="endArrow=classic;html=1;rounded=0;exitX=0.5;exitY=1;exitDx=0;exitDy=0;entryX=0;entryY=0.5;entryDx=0;entryDy=0;" parent="KlxJ9Z5U4-zLsQv62aYy-1" source="KlxJ9Z5U4-zLsQv62aYy-2" target="_q8Ff0tTg5JuddRTAkwV-0" edge="1">
          <mxGeometry width="50" height="50" relative="1" as="geometry">
            <mxPoint x="390" y="410" as="sourcePoint" />
            <mxPoint x="440" y="360" as="targetPoint" />
            <Array as="points">
              <mxPoint x="140" y="360" />
            </Array>
          </mxGeometry>
        </mxCell>
        <mxCell id="KlxJ9Z5U4-zLsQv62aYy-8" value="" style="endArrow=classic;html=1;rounded=0;entryX=1;entryY=0.5;entryDx=0;entryDy=0;exitX=0.539;exitY=0.979;exitDx=0;exitDy=0;exitPerimeter=0;" parent="KlxJ9Z5U4-zLsQv62aYy-1" target="KlxJ9Z5U4-zLsQv62aYy-3" edge="1" source="KlxJ9Z5U4-zLsQv62aYy-4">
          <mxGeometry width="50" height="50" relative="1" as="geometry">
            <mxPoint x="685" y="250" as="sourcePoint" />
            <mxPoint x="440" y="360" as="targetPoint" />
            <Array as="points">
              <mxPoint x="693" y="360" />
            </Array>
          </mxGeometry>
        </mxCell>
        <mxCell id="KlxJ9Z5U4-zLsQv62aYy-9" value="&lt;u&gt;Message&lt;/u&gt;&lt;div&gt;Multiple static listeners&lt;/div&gt;&lt;div&gt;No return value&lt;/div&gt;" style="rounded=1;whiteSpace=wrap;html=1;" parent="KlxJ9Z5U4-zLsQv62aYy-1" vertex="1">
          <mxGeometry x="270" y="460" width="280" height="50" as="geometry" />
        </mxCell>
        <mxCell id="_q8Ff0tTg5JuddRTAkwV-6" style="edgeStyle=orthogonalEdgeStyle;rounded=0;orthogonalLoop=1;jettySize=auto;html=1;exitX=0.5;exitY=0;exitDx=0;exitDy=0;entryX=0.5;entryY=1;entryDx=0;entryDy=0;endArrow=classic;endFill=0;" edge="1" parent="KlxJ9Z5U4-zLsQv62aYy-1" source="KlxJ9Z5U4-zLsQv62aYy-10" target="KlxJ9Z5U4-zLsQv62aYy-9">
          <mxGeometry relative="1" as="geometry" />
        </mxCell>
        <mxCell id="KlxJ9Z5U4-zLsQv62aYy-10" value="&lt;u&gt;Request&lt;/u&gt;&lt;div&gt;&lt;span style=&quot;background-color: initial;&quot;&gt;Return value&lt;/span&gt;&lt;br&gt;&lt;/div&gt;&lt;div&gt;&lt;div&gt;One static handler&lt;/div&gt;&lt;/div&gt;" style="rounded=1;whiteSpace=wrap;html=1;" parent="KlxJ9Z5U4-zLsQv62aYy-1" vertex="1">
          <mxGeometry x="410" y="550" width="280" height="70" as="geometry" />
        </mxCell>
        <mxCell id="_q8Ff0tTg5JuddRTAkwV-7" style="edgeStyle=orthogonalEdgeStyle;rounded=0;orthogonalLoop=1;jettySize=auto;html=1;exitX=0.5;exitY=0;exitDx=0;exitDy=0;entryX=0.5;entryY=1;entryDx=0;entryDy=0;endArrow=classic;endFill=0;" edge="1" parent="KlxJ9Z5U4-zLsQv62aYy-1" source="KlxJ9Z5U4-zLsQv62aYy-11" target="KlxJ9Z5U4-zLsQv62aYy-9">
          <mxGeometry relative="1" as="geometry" />
        </mxCell>
        <mxCell id="KlxJ9Z5U4-zLsQv62aYy-11" value="&lt;u&gt;Command&lt;/u&gt;&lt;div&gt;Call&amp;nbsp;Update_Message if root&lt;/div&gt;" style="rounded=1;whiteSpace=wrap;html=1;" parent="KlxJ9Z5U4-zLsQv62aYy-1" vertex="1">
          <mxGeometry x="90" y="550" width="280" height="70" as="geometry" />
        </mxCell>
        <mxCell id="_q8Ff0tTg5JuddRTAkwV-0" value="&lt;u&gt;IModel&lt;/u&gt;&lt;div&gt;&lt;div&gt;Has&amp;nbsp;&lt;span style=&quot;background-color: initial;&quot;&gt;runtime&amp;nbsp;&lt;/span&gt;&lt;span style=&quot;background-color: initial;&quot;&gt;data&lt;/span&gt;&lt;/div&gt;&lt;/div&gt;&lt;div&gt;&lt;span style=&quot;background-color: initial;&quot;&gt;Has documentation&lt;/span&gt;&lt;/div&gt;" style="rounded=1;whiteSpace=wrap;html=1;" vertex="1" parent="KlxJ9Z5U4-zLsQv62aYy-1">
          <mxGeometry x="180" y="330" width="210" height="60" as="geometry" />
        </mxCell>
        <mxCell id="_q8Ff0tTg5JuddRTAkwV-5" style="edgeStyle=orthogonalEdgeStyle;rounded=0;orthogonalLoop=1;jettySize=auto;html=1;exitX=0;exitY=0.5;exitDx=0;exitDy=0;entryX=1.008;entryY=0.506;entryDx=0;entryDy=0;entryPerimeter=0;endArrow=block;endFill=0;" edge="1" parent="KlxJ9Z5U4-zLsQv62aYy-1" source="KlxJ9Z5U4-zLsQv62aYy-3" target="_q8Ff0tTg5JuddRTAkwV-0">
          <mxGeometry relative="1" as="geometry" />
        </mxCell>
        <mxCell id="_q8Ff0tTg5JuddRTAkwV-11" style="edgeStyle=orthogonalEdgeStyle;rounded=0;orthogonalLoop=1;jettySize=auto;html=1;exitX=0;exitY=0.5;exitDx=0;exitDy=0;entryX=1;entryY=0.5;entryDx=0;entryDy=0;" edge="1" parent="KlxJ9Z5U4-zLsQv62aYy-1" source="_q8Ff0tTg5JuddRTAkwV-8" target="KlxJ9Z5U4-zLsQv62aYy-9">
          <mxGeometry relative="1" as="geometry" />
        </mxCell>
        <mxCell id="_q8Ff0tTg5JuddRTAkwV-8" value="&lt;u&gt;Mediator&lt;/u&gt;&lt;div&gt;Hold all the listeners&lt;/div&gt;" style="rounded=1;whiteSpace=wrap;html=1;" vertex="1" parent="KlxJ9Z5U4-zLsQv62aYy-1">
          <mxGeometry x="585" y="460" width="200" height="50" as="geometry" />
        </mxCell>
        <mxCell id="_q8Ff0tTg5JuddRTAkwV-9" value="" style="endArrow=none;html=1;rounded=0;" edge="1" parent="KlxJ9Z5U4-zLsQv62aYy-1">
          <mxGeometry width="50" height="50" relative="1" as="geometry">
            <mxPoint x="20" y="420" as="sourcePoint" />
            <mxPoint x="800" y="420" as="targetPoint" />
          </mxGeometry>
        </mxCell>
        <mxCell id="_q8Ff0tTg5JuddRTAkwV-12" style="edgeStyle=orthogonalEdgeStyle;rounded=0;orthogonalLoop=1;jettySize=auto;html=1;exitX=0.25;exitY=1;exitDx=0;exitDy=0;entryX=0.8;entryY=-0.015;entryDx=0;entryDy=0;entryPerimeter=0;" edge="1" parent="KlxJ9Z5U4-zLsQv62aYy-1" source="_q8Ff0tTg5JuddRTAkwV-8" target="KlxJ9Z5U4-zLsQv62aYy-10">
          <mxGeometry relative="1" as="geometry" />
        </mxCell>
      </root>
    </mxGraphModel>
  </diagram>
  <diagram id="wCEjzbZ60hLsvlCkfkLh" name="Inherent">
    <mxGraphModel dx="1185" dy="632" grid="1" gridSize="10" guides="1" tooltips="1" connect="1" arrows="1" fold="1" page="1" pageScale="1" pageWidth="850" pageHeight="1100" math="0" shadow="0">
      <root>
        <mxCell id="0" />
        <mxCell id="1" parent="0" />
        <mxCell id="4ZLqPE0jwgAMNhGhChbY-10" style="edgeStyle=orthogonalEdgeStyle;rounded=0;orthogonalLoop=1;jettySize=auto;html=1;exitX=0.5;exitY=0;exitDx=0;exitDy=0;entryX=0;entryY=0.5;entryDx=0;entryDy=0;" edge="1" parent="1" source="4ZLqPE0jwgAMNhGhChbY-1" target="4ZLqPE0jwgAMNhGhChbY-2">
          <mxGeometry relative="1" as="geometry" />
        </mxCell>
        <mxCell id="4ZLqPE0jwgAMNhGhChbY-1" value="Hp" style="rounded=1;whiteSpace=wrap;html=1;" vertex="1" parent="1">
          <mxGeometry x="170" y="120" width="120" height="60" as="geometry" />
        </mxCell>
        <mxCell id="4ZLqPE0jwgAMNhGhChbY-2" value="Name" style="rounded=1;whiteSpace=wrap;html=1;" vertex="1" parent="1">
          <mxGeometry x="300" y="40" width="120" height="60" as="geometry" />
        </mxCell>
        <mxCell id="4ZLqPE0jwgAMNhGhChbY-3" value="Amount" style="rounded=1;whiteSpace=wrap;html=1;" vertex="1" parent="1">
          <mxGeometry x="600" y="40" width="120" height="60" as="geometry" />
        </mxCell>
        <mxCell id="4ZLqPE0jwgAMNhGhChbY-26" style="edgeStyle=orthogonalEdgeStyle;rounded=0;orthogonalLoop=1;jettySize=auto;html=1;exitX=0.5;exitY=0;exitDx=0;exitDy=0;entryX=0;entryY=0.75;entryDx=0;entryDy=0;" edge="1" parent="1" source="4ZLqPE0jwgAMNhGhChbY-4" target="4ZLqPE0jwgAMNhGhChbY-21">
          <mxGeometry relative="1" as="geometry" />
        </mxCell>
        <mxCell id="4ZLqPE0jwgAMNhGhChbY-28" style="edgeStyle=orthogonalEdgeStyle;rounded=0;orthogonalLoop=1;jettySize=auto;html=1;exitX=1;exitY=0.5;exitDx=0;exitDy=0;entryX=0.5;entryY=1;entryDx=0;entryDy=0;" edge="1" parent="1" source="4ZLqPE0jwgAMNhGhChbY-4" target="4ZLqPE0jwgAMNhGhChbY-3">
          <mxGeometry relative="1" as="geometry">
            <mxPoint x="440" y="270" as="targetPoint" />
            <Array as="points">
              <mxPoint x="460" y="330" />
              <mxPoint x="460" y="200" />
              <mxPoint x="660" y="200" />
            </Array>
          </mxGeometry>
        </mxCell>
        <mxCell id="4ZLqPE0jwgAMNhGhChbY-4" value="Attack" style="rounded=1;whiteSpace=wrap;html=1;" vertex="1" parent="1">
          <mxGeometry x="300" y="300" width="120" height="60" as="geometry" />
        </mxCell>
        <mxCell id="4ZLqPE0jwgAMNhGhChbY-12" style="edgeStyle=orthogonalEdgeStyle;rounded=0;orthogonalLoop=1;jettySize=auto;html=1;exitX=0.5;exitY=0;exitDx=0;exitDy=0;entryX=1;entryY=0.5;entryDx=0;entryDy=0;" edge="1" parent="1" source="4ZLqPE0jwgAMNhGhChbY-5" target="4ZLqPE0jwgAMNhGhChbY-21">
          <mxGeometry relative="1" as="geometry" />
        </mxCell>
        <mxCell id="4ZLqPE0jwgAMNhGhChbY-27" style="edgeStyle=orthogonalEdgeStyle;rounded=0;orthogonalLoop=1;jettySize=auto;html=1;exitX=0;exitY=0.5;exitDx=0;exitDy=0;entryX=0.5;entryY=1;entryDx=0;entryDy=0;" edge="1" parent="1" source="4ZLqPE0jwgAMNhGhChbY-5" target="4ZLqPE0jwgAMNhGhChbY-3">
          <mxGeometry relative="1" as="geometry" />
        </mxCell>
        <mxCell id="4ZLqPE0jwgAMNhGhChbY-5" value="Heal" style="rounded=1;whiteSpace=wrap;html=1;" vertex="1" parent="1">
          <mxGeometry x="480" y="300" width="120" height="60" as="geometry" />
        </mxCell>
        <mxCell id="4ZLqPE0jwgAMNhGhChbY-14" style="edgeStyle=orthogonalEdgeStyle;rounded=0;orthogonalLoop=1;jettySize=auto;html=1;exitX=0.5;exitY=0;exitDx=0;exitDy=0;entryX=0;entryY=0.5;entryDx=0;entryDy=0;" edge="1" parent="1" source="4ZLqPE0jwgAMNhGhChbY-7" target="4ZLqPE0jwgAMNhGhChbY-4">
          <mxGeometry relative="1" as="geometry" />
        </mxCell>
        <mxCell id="4ZLqPE0jwgAMNhGhChbY-7" value="Dot" style="rounded=1;whiteSpace=wrap;html=1;" vertex="1" parent="1">
          <mxGeometry x="220" y="400" width="120" height="60" as="geometry" />
        </mxCell>
        <mxCell id="4ZLqPE0jwgAMNhGhChbY-15" style="edgeStyle=orthogonalEdgeStyle;rounded=0;orthogonalLoop=1;jettySize=auto;html=1;exitX=0.5;exitY=0;exitDx=0;exitDy=0;entryX=1;entryY=0.5;entryDx=0;entryDy=0;" edge="1" parent="1" source="4ZLqPE0jwgAMNhGhChbY-8" target="4ZLqPE0jwgAMNhGhChbY-5">
          <mxGeometry relative="1" as="geometry" />
        </mxCell>
        <mxCell id="4ZLqPE0jwgAMNhGhChbY-17" style="edgeStyle=orthogonalEdgeStyle;rounded=0;orthogonalLoop=1;jettySize=auto;html=1;exitX=0;exitY=0.5;exitDx=0;exitDy=0;entryX=1;entryY=0.5;entryDx=0;entryDy=0;" edge="1" parent="1" source="4ZLqPE0jwgAMNhGhChbY-8" target="4ZLqPE0jwgAMNhGhChbY-16">
          <mxGeometry relative="1" as="geometry" />
        </mxCell>
        <mxCell id="4ZLqPE0jwgAMNhGhChbY-8" value="Hot" style="rounded=1;whiteSpace=wrap;html=1;" vertex="1" parent="1">
          <mxGeometry x="560" y="400" width="120" height="60" as="geometry" />
        </mxCell>
        <mxCell id="4ZLqPE0jwgAMNhGhChbY-16" value="Over_Time" style="rounded=1;whiteSpace=wrap;html=1;" vertex="1" parent="1">
          <mxGeometry x="380" y="400" width="120" height="60" as="geometry" />
        </mxCell>
        <mxCell id="4ZLqPE0jwgAMNhGhChbY-18" style="edgeStyle=orthogonalEdgeStyle;rounded=0;orthogonalLoop=1;jettySize=auto;html=1;exitX=1;exitY=0.5;exitDx=0;exitDy=0;entryX=-0.018;entryY=0.509;entryDx=0;entryDy=0;entryPerimeter=0;" edge="1" parent="1" source="4ZLqPE0jwgAMNhGhChbY-7" target="4ZLqPE0jwgAMNhGhChbY-16">
          <mxGeometry relative="1" as="geometry" />
        </mxCell>
        <mxCell id="4ZLqPE0jwgAMNhGhChbY-20" style="edgeStyle=orthogonalEdgeStyle;rounded=0;orthogonalLoop=1;jettySize=auto;html=1;exitX=0.5;exitY=0;exitDx=0;exitDy=0;entryX=0.5;entryY=1;entryDx=0;entryDy=0;" edge="1" parent="1" source="4ZLqPE0jwgAMNhGhChbY-19" target="4ZLqPE0jwgAMNhGhChbY-1">
          <mxGeometry relative="1" as="geometry" />
        </mxCell>
        <mxCell id="gqW4Q_MgNlemxCpcfqQV-1" style="edgeStyle=orthogonalEdgeStyle;rounded=0;orthogonalLoop=1;jettySize=auto;html=1;exitX=1;exitY=0.5;exitDx=0;exitDy=0;entryX=0;entryY=0.25;entryDx=0;entryDy=0;endArrow=diamond;endFill=1;" edge="1" parent="1" source="4ZLqPE0jwgAMNhGhChbY-19" target="4ZLqPE0jwgAMNhGhChbY-21">
          <mxGeometry relative="1" as="geometry">
            <Array as="points">
              <mxPoint x="330" y="240" />
              <mxPoint x="330" y="135" />
            </Array>
          </mxGeometry>
        </mxCell>
        <mxCell id="4ZLqPE0jwgAMNhGhChbY-19" value="Entity" style="rounded=1;whiteSpace=wrap;html=1;" vertex="1" parent="1">
          <mxGeometry x="170" y="210" width="120" height="60" as="geometry" />
        </mxCell>
        <mxCell id="4ZLqPE0jwgAMNhGhChbY-22" style="edgeStyle=orthogonalEdgeStyle;rounded=0;orthogonalLoop=1;jettySize=auto;html=1;exitX=0.5;exitY=0;exitDx=0;exitDy=0;entryX=1;entryY=0.5;entryDx=0;entryDy=0;" edge="1" parent="1" source="4ZLqPE0jwgAMNhGhChbY-21" target="4ZLqPE0jwgAMNhGhChbY-2">
          <mxGeometry relative="1" as="geometry" />
        </mxCell>
        <mxCell id="4ZLqPE0jwgAMNhGhChbY-24" style="edgeStyle=orthogonalEdgeStyle;rounded=0;orthogonalLoop=1;jettySize=auto;html=1;exitX=0.5;exitY=0;exitDx=0;exitDy=0;entryX=0;entryY=0.5;entryDx=0;entryDy=0;" edge="1" parent="1" source="4ZLqPE0jwgAMNhGhChbY-21" target="4ZLqPE0jwgAMNhGhChbY-23">
          <mxGeometry relative="1" as="geometry" />
        </mxCell>
        <mxCell id="4ZLqPE0jwgAMNhGhChbY-21" value="Action" style="rounded=1;whiteSpace=wrap;html=1;" vertex="1" parent="1">
          <mxGeometry x="380" y="120" width="120" height="60" as="geometry" />
        </mxCell>
        <mxCell id="4ZLqPE0jwgAMNhGhChbY-23" value="Cooldown" style="rounded=1;whiteSpace=wrap;html=1;" vertex="1" parent="1">
          <mxGeometry x="460" y="40" width="120" height="60" as="geometry" />
        </mxCell>
        <mxCell id="pbH6TAyWMb3FhlkhyqJW-2" style="edgeStyle=orthogonalEdgeStyle;rounded=0;orthogonalLoop=1;jettySize=auto;html=1;exitX=0.5;exitY=0;exitDx=0;exitDy=0;entryX=0.5;entryY=1;entryDx=0;entryDy=0;" edge="1" parent="1" source="pbH6TAyWMb3FhlkhyqJW-1" target="4ZLqPE0jwgAMNhGhChbY-16">
          <mxGeometry relative="1" as="geometry" />
        </mxCell>
        <mxCell id="pbH6TAyWMb3FhlkhyqJW-3" style="edgeStyle=orthogonalEdgeStyle;rounded=0;orthogonalLoop=1;jettySize=auto;html=1;exitX=1;exitY=0.5;exitDx=0;exitDy=0;entryX=0.492;entryY=1.051;entryDx=0;entryDy=0;entryPerimeter=0;" edge="1" parent="1" source="pbH6TAyWMb3FhlkhyqJW-1" target="4ZLqPE0jwgAMNhGhChbY-3">
          <mxGeometry relative="1" as="geometry">
            <Array as="points">
              <mxPoint x="700" y="520" />
              <mxPoint x="700" y="200" />
              <mxPoint x="659" y="200" />
            </Array>
          </mxGeometry>
        </mxCell>
        <mxCell id="pbH6TAyWMb3FhlkhyqJW-4" style="edgeStyle=orthogonalEdgeStyle;rounded=0;orthogonalLoop=1;jettySize=auto;html=1;exitX=1;exitY=0.5;exitDx=0;exitDy=0;entryX=1;entryY=0.5;entryDx=0;entryDy=0;" edge="1" parent="1" source="pbH6TAyWMb3FhlkhyqJW-1" target="4ZLqPE0jwgAMNhGhChbY-21">
          <mxGeometry relative="1" as="geometry">
            <Array as="points">
              <mxPoint x="700" y="520" />
              <mxPoint x="700" y="150" />
            </Array>
          </mxGeometry>
        </mxCell>
        <mxCell id="pbH6TAyWMb3FhlkhyqJW-1" value="Shield" style="rounded=1;whiteSpace=wrap;html=1;" vertex="1" parent="1">
          <mxGeometry x="380" y="490" width="120" height="60" as="geometry" />
        </mxCell>
      </root>
    </mxGraphModel>
  </diagram>
</mxfile>
